# xmcd
#
# Track frame offsets: 
#        150
#        6094
#        31635
#        48358
#        64836
#        75568
#        108533
#        128156
#        142653
#        167705
#
# Disc length: 2683 seconds
#
# Revision: 0
# Processed by: cddbd v1.5.2PL0 Copyright (c) Steve Scherf et al.
# Submitted via: ExactAudioCopy v1.0b4
#
DISCID=730a790a
DTITLE=Hot Tuna - North Petaluma CD1
DYEAR=2000
DGENRE=Blues
TTITLE0=Introduction
TTITLE1=Uncle Sam Blues
TTITLE2=How Long Blues
TTITLE3=Vampire Woman
TTITLE4=Do Not Go Gentle
TTITLE5=I See The Light
TTITLE6=Living In The Moment
TTITLE7=Embryonic Journey
TTITLE8=Sea Child
TTITLE9=99 Year Blues
EXTD=
EXTT0=
EXTT1=
EXTT2=
EXTT3=
EXTT4=
EXTT5=
EXTT6=
EXTT7=
EXTT8=
EXTT9=
PLAYORDER=
